<?xml version="1.0" encoding="UTF-8" standalone="no"?>
<!-- Created with Inkscape (http://www.inkscape.org/) -->

<svg
   width="117.329"
   height="99.151817"
   viewBox="0 0 117.329 99.151817"
   version="1.1"
   id="svg1"
   xmlns="http://www.w3.org/2000/svg"
   xmlns:svg="http://www.w3.org/2000/svg">
  <defs
     id="defs1" />
  <g
     id="g14"
     transform="translate(-97.589406,-11.335766)">
    <g
       id="g9"
       style="fill:#ff00ff;stroke:none;stroke-opacity:1">
      <path
         id="path8"
         style="fill:none;fill-opacity:1;stroke:#9c339c;stroke-width:2.88514;stroke-dasharray:none;stroke-opacity:1"
         d="m 138.3347,64.589844 c -11.43589,0 -24.32588,8.546434 -20.70713,17.207031 6.36847,15.241413 19.97268,14.867959 26.89236,10.798828 6.01214,-3.535454 10.02893,-3.301587 12.28554,-4.582031 2.25661,1.280444 6.27341,1.046577 12.28555,4.582031 6.91968,4.069131 20.52389,4.442585 26.89237,-10.798828 3.61874,-8.660597 -9.27126,-17.207031 -20.70715,-17.207031 -8.06402,0 -15.05138,3.830749 -18.47077,9.421875 -3.41938,-5.591126 -10.40674,-9.421875 -18.47077,-9.421875 z" />
    </g>
    <g
       id="g12">
      <g
         id="g11"
         transform="matrix(0.92489343,0,0,0.76528739,39.081961,10.608052)">
        <path
           id="path10"
           style="fill:#610061;fill-opacity:1;stroke:#9c339c;stroke-width:3.42933;stroke-dasharray:none;stroke-opacity:1"
           d="m 123.95715,100.75024 c -2.82229,-0.0372 -5.16934,0.45821 -6.06054,1.9626 -1.91647,0.50159 -3.17969,0.9009 -3.17969,0.9009 -1.73327,6.93309 10.49528,18.08745 12.04883,19.47032 0.0704,0.0932 0.10937,0.14292 0.10937,0.14292 0,0 0.008,-0.008 0.0254,-0.023 0.0175,0.0154 0.0273,0.023 0.0273,0.023 0,0 0.037,-0.0497 0.10742,-0.14292 1.55355,-1.38287 13.78405,-12.53723 12.05078,-19.47032 0,0 -1.26322,-0.39931 -3.17969,-0.9009 -1.18826,-2.00584 -4.96466,-2.21701 -9.00586,-1.76609 -1.01029,-0.11273 -2.00259,-0.1841 -2.94336,-0.19651 z" />
      </g>
    </g>
  </g>
</svg>
