<?xml version="1.0" encoding="UTF-8" standalone="no"?>
<!-- Created with Inkscape (http://www.inkscape.org/) -->

<svg
   width="117.329"
   height="99.151817"
   viewBox="0 0 117.329 99.151817"
   version="1.1"
   id="svg1"
   xmlns="http://www.w3.org/2000/svg"
   xmlns:svg="http://www.w3.org/2000/svg">
  <defs
     id="defs1" />
  <g
     id="g14"
     transform="translate(-97.589406,-11.335766)">
    <g
       id="g3"
       transform="matrix(1,0,0,0.87613619,1.66947,30.63414)">
      <rect
         style="fill:#610061;fill-opacity:1;stroke:#9c339c;stroke-width:3.136;stroke-linecap:round;stroke-linejoin:round;stroke-dasharray:none;stroke-dashoffset:0;stroke-opacity:1"
         id="rect3"
         width="70.369614"
         height="67.903236"
         x="45.043751"
         y="81.461739"
         transform="matrix(0.79317554,-0.60899307,0.79317554,0.60899307,0,0)" />
    </g>
    <g
       id="g7">
      <path
         id="path3"
         style="fill:#610061;fill-opacity:1;stroke:#9c339c;stroke-width:2.88514;stroke-dasharray:none;stroke-opacity:1"
         d="m 99.373566,59.113281 c -0.319114,-0.01582 -0.391871,0.133038 -0.204127,0.525391 5.739721,11.995091 10.554681,12.976842 11.913421,14.134766 -2.32324,1.622033 -4.19172,3.900229 -5.67942,7.076171 -9.514539,20.311661 -7.224004,28.434431 51.44358,28.175781 v 0.0156 c 0.15677,9.5e-4 0.3137,0.003 0.46968,0.004 0.15597,-8.3e-4 0.3129,-0.003 0.46967,-0.004 v -0.0156 c 58.66761,0.25865 60.95812,-7.86411 51.44358,-28.175781 -1.98564,-4.238935 -4.64839,-6.880706 -8.16688,-8.49414 2.25135,-1.487084 5.7315,-4.546714 9.64093,-12.716797 1.20155,-2.511057 -8.3004,4.989676 -24.36877,1.351562 -9.91936,-2.245888 -21.68786,0.110633 -31.39761,2.113282 -9.70974,-2.002649 -21.48004,-4.35917 -31.39941,-2.113282 -13.55769,3.069659 -22.44143,-1.791499 -24.164644,-1.876953 z" />
    </g>
  </g>
</svg>
